<mxfile host="app.diagrams.net" agent="Mozilla/5.0 (Windows NT 10.0; Win64; x64) AppleWebKit/537.36 (KHTML, like Gecko) Chrome/133.0.0.0 Safari/537.36 Edg/133.0.0.0" version="26.0.16">
  <diagram id="bSsongvgESsVjoufMy5u" name="Page-1">
    <mxGraphModel dx="1822" dy="2394" grid="1" gridSize="10" guides="1" tooltips="1" connect="1" arrows="1" fold="1" page="1" pageScale="1" pageWidth="827" pageHeight="1169" math="0" shadow="0">
      <root>
        <mxCell id="0" />
        <mxCell id="1" parent="0" />
        <mxCell id="3Ry79pK2lQkYzXNGVwvr-2" value="START" style="strokeWidth=2;html=1;shape=mxgraph.flowchart.terminator;whiteSpace=wrap;" parent="1" vertex="1">
          <mxGeometry x="370" y="-460" width="100" height="60" as="geometry" />
        </mxCell>
        <mxCell id="3Ry79pK2lQkYzXNGVwvr-3" value="END" style="strokeWidth=2;html=1;shape=mxgraph.flowchart.terminator;whiteSpace=wrap;" parent="1" vertex="1">
          <mxGeometry x="364" y="-130" width="100" height="60" as="geometry" />
        </mxCell>
        <mxCell id="p86phIYACnR_FWOod3PQ-1" value="flowchart" style="text;html=1;align=center;verticalAlign=middle;resizable=0;points=[];autosize=1;strokeColor=none;fillColor=none;" vertex="1" parent="1">
          <mxGeometry x="375" y="-522" width="70" height="30" as="geometry" />
        </mxCell>
        <mxCell id="p86phIYACnR_FWOod3PQ-2" value="erd level 0" style="text;html=1;align=center;verticalAlign=middle;resizable=0;points=[];autosize=1;strokeColor=none;fillColor=none;" vertex="1" parent="1">
          <mxGeometry x="860" y="-470" width="80" height="30" as="geometry" />
        </mxCell>
        <mxCell id="p86phIYACnR_FWOod3PQ-3" value="" style="shape=datastore;whiteSpace=wrap;html=1;" vertex="1" parent="1">
          <mxGeometry x="1845" y="-190" width="60" height="60" as="geometry" />
        </mxCell>
        <mxCell id="p86phIYACnR_FWOod3PQ-7" value="" style="edgeStyle=orthogonalEdgeStyle;rounded=0;orthogonalLoop=1;jettySize=auto;html=1;" edge="1" parent="1" source="p86phIYACnR_FWOod3PQ-4" target="p86phIYACnR_FWOod3PQ-5">
          <mxGeometry relative="1" as="geometry">
            <Array as="points">
              <mxPoint x="1665" y="-60" />
              <mxPoint x="1665" y="-60" />
            </Array>
          </mxGeometry>
        </mxCell>
        <mxCell id="p86phIYACnR_FWOod3PQ-4" value="" style="strokeWidth=2;html=1;shape=mxgraph.flowchart.database;whiteSpace=wrap;" vertex="1" parent="1">
          <mxGeometry x="1615" y="-190" width="60" height="60" as="geometry" />
        </mxCell>
        <mxCell id="p86phIYACnR_FWOod3PQ-6" value="" style="edgeStyle=orthogonalEdgeStyle;rounded=0;orthogonalLoop=1;jettySize=auto;html=1;entryX=0.198;entryY=1.022;entryDx=0;entryDy=0;entryPerimeter=0;" edge="1" parent="1" source="p86phIYACnR_FWOod3PQ-5" target="p86phIYACnR_FWOod3PQ-4">
          <mxGeometry relative="1" as="geometry">
            <Array as="points">
              <mxPoint x="1627" y="-40" />
              <mxPoint x="1627" y="-40" />
            </Array>
          </mxGeometry>
        </mxCell>
        <mxCell id="p86phIYACnR_FWOod3PQ-5" value="user" style="html=1;whiteSpace=wrap;" vertex="1" parent="1">
          <mxGeometry x="1590" width="110" height="50" as="geometry" />
        </mxCell>
        <mxCell id="p86phIYACnR_FWOod3PQ-10" value="" style="edgeStyle=orthogonalEdgeStyle;rounded=0;orthogonalLoop=1;jettySize=auto;html=1;" edge="1" parent="1" source="p86phIYACnR_FWOod3PQ-8" target="p86phIYACnR_FWOod3PQ-9">
          <mxGeometry relative="1" as="geometry">
            <Array as="points">
              <mxPoint x="900" y="-280" />
              <mxPoint x="900" y="-280" />
            </Array>
          </mxGeometry>
        </mxCell>
        <mxCell id="p86phIYACnR_FWOod3PQ-12" value="" style="edgeStyle=orthogonalEdgeStyle;rounded=0;orthogonalLoop=1;jettySize=auto;html=1;" edge="1" parent="1" source="p86phIYACnR_FWOod3PQ-8" target="p86phIYACnR_FWOod3PQ-11">
          <mxGeometry relative="1" as="geometry">
            <Array as="points">
              <mxPoint x="1000" y="-200" />
              <mxPoint x="1000" y="-200" />
            </Array>
          </mxGeometry>
        </mxCell>
        <mxCell id="p86phIYACnR_FWOod3PQ-14" value="" style="edgeStyle=orthogonalEdgeStyle;rounded=0;orthogonalLoop=1;jettySize=auto;html=1;" edge="1" parent="1" source="p86phIYACnR_FWOod3PQ-8" target="p86phIYACnR_FWOod3PQ-13">
          <mxGeometry relative="1" as="geometry">
            <Array as="points">
              <mxPoint x="900" y="-140" />
              <mxPoint x="900" y="-140" />
            </Array>
          </mxGeometry>
        </mxCell>
        <mxCell id="p86phIYACnR_FWOod3PQ-8" value="Lelang" style="strokeWidth=2;html=1;shape=mxgraph.flowchart.start_1;whiteSpace=wrap;" vertex="1" parent="1">
          <mxGeometry x="860" y="-240" width="100" height="60" as="geometry" />
        </mxCell>
        <mxCell id="p86phIYACnR_FWOod3PQ-17" value="" style="edgeStyle=orthogonalEdgeStyle;rounded=0;orthogonalLoop=1;jettySize=auto;html=1;" edge="1" parent="1" source="p86phIYACnR_FWOod3PQ-9" target="p86phIYACnR_FWOod3PQ-8">
          <mxGeometry relative="1" as="geometry">
            <Array as="points">
              <mxPoint x="920" y="-280" />
              <mxPoint x="920" y="-280" />
            </Array>
          </mxGeometry>
        </mxCell>
        <mxCell id="p86phIYACnR_FWOod3PQ-9" value="user" style="whiteSpace=wrap;html=1;strokeWidth=2;" vertex="1" parent="1">
          <mxGeometry x="850" y="-380" width="120" height="60" as="geometry" />
        </mxCell>
        <mxCell id="p86phIYACnR_FWOod3PQ-18" value="" style="edgeStyle=orthogonalEdgeStyle;rounded=0;orthogonalLoop=1;jettySize=auto;html=1;" edge="1" parent="1" source="p86phIYACnR_FWOod3PQ-11" target="p86phIYACnR_FWOod3PQ-8">
          <mxGeometry relative="1" as="geometry" />
        </mxCell>
        <mxCell id="p86phIYACnR_FWOod3PQ-11" value="guest" style="whiteSpace=wrap;html=1;strokeWidth=2;" vertex="1" parent="1">
          <mxGeometry x="1070" y="-240" width="120" height="60" as="geometry" />
        </mxCell>
        <mxCell id="p86phIYACnR_FWOod3PQ-16" value="" style="edgeStyle=orthogonalEdgeStyle;rounded=0;orthogonalLoop=1;jettySize=auto;html=1;" edge="1" parent="1" source="p86phIYACnR_FWOod3PQ-13" target="p86phIYACnR_FWOod3PQ-8">
          <mxGeometry relative="1" as="geometry">
            <Array as="points">
              <mxPoint x="920" y="-150" />
              <mxPoint x="920" y="-150" />
            </Array>
          </mxGeometry>
        </mxCell>
        <mxCell id="p86phIYACnR_FWOod3PQ-13" value="" style="strokeWidth=2;html=1;shape=mxgraph.flowchart.database;whiteSpace=wrap;" vertex="1" parent="1">
          <mxGeometry x="880" y="-110" width="60" height="60" as="geometry" />
        </mxCell>
        <mxCell id="p86phIYACnR_FWOod3PQ-19" value="register" style="text;html=1;align=center;verticalAlign=middle;resizable=0;points=[];autosize=1;strokeColor=none;fillColor=none;" vertex="1" parent="1">
          <mxGeometry x="980" y="-240" width="60" height="30" as="geometry" />
        </mxCell>
        <mxCell id="p86phIYACnR_FWOod3PQ-20" value="daftar lelang" style="text;html=1;align=center;verticalAlign=middle;resizable=0;points=[];autosize=1;strokeColor=none;fillColor=none;" vertex="1" parent="1">
          <mxGeometry x="965" y="-202" width="90" height="30" as="geometry" />
        </mxCell>
        <mxCell id="p86phIYACnR_FWOod3PQ-21" value="daftar lelang" style="text;html=1;align=center;verticalAlign=middle;resizable=0;points=[];autosize=1;strokeColor=none;fillColor=none;" vertex="1" parent="1">
          <mxGeometry x="810" y="-290" width="90" height="30" as="geometry" />
        </mxCell>
        <mxCell id="p86phIYACnR_FWOod3PQ-22" value="membuat atau mengikuti lelang" style="text;html=1;align=center;verticalAlign=middle;resizable=0;points=[];autosize=1;strokeColor=none;fillColor=none;" vertex="1" parent="1">
          <mxGeometry x="915" y="-302" width="190" height="30" as="geometry" />
        </mxCell>
        <mxCell id="p86phIYACnR_FWOod3PQ-23" value="menyimpan" style="text;html=1;align=center;verticalAlign=middle;resizable=0;points=[];autosize=1;strokeColor=none;fillColor=none;" vertex="1" parent="1">
          <mxGeometry x="810" y="-160" width="90" height="30" as="geometry" />
        </mxCell>
        <mxCell id="p86phIYACnR_FWOod3PQ-24" value="menampilkan" style="text;html=1;align=center;verticalAlign=middle;resizable=0;points=[];autosize=1;strokeColor=none;fillColor=none;" vertex="1" parent="1">
          <mxGeometry x="915" y="-160" width="90" height="30" as="geometry" />
        </mxCell>
        <mxCell id="p86phIYACnR_FWOod3PQ-25" value="erd level 1" style="text;html=1;align=center;verticalAlign=middle;resizable=0;points=[];autosize=1;strokeColor=none;fillColor=none;" vertex="1" parent="1">
          <mxGeometry x="1640" y="-445" width="80" height="30" as="geometry" />
        </mxCell>
      </root>
    </mxGraphModel>
  </diagram>
</mxfile>
